# xmcd CD database file
#
# Track frame offsets:
#	150
#	13263
#	36330
#	59385
#	77445
#	91595
#	112192
#	128948
#	149880
#	169243
#
# Disc length: 2486 seconds
#
# Revision: 0
# Processed by: cddbd v1.5.1PL0 Copyright (c) Steve Scherf et al.
# Submitted via: CDex 1.50Beta7
#
DISCID=8c09b40a
DTITLE=有山じゅんじ - ありのままのじゅんじ
DYEAR=1978
DGENRE=Blues
TTITLE0=今日も気楽に
TTITLE1=Babyもうすぐ帰るよ
TTITLE2=僕ムシャクシャ
TTITLE3=ほら あんなに月までブルームーン
TTITLE4=めざすは夢の宝島
TTITLE5=ディディ ワァ ディディ
TTITLE6=行くあてなし
TTITLE7=Baby お前が好きだよ
TTITLE8=今夜はカキ色の月が
TTITLE9=果てしなく
EXTD=YEAR: 1978
EXTT0=
EXTT1=
EXTT2=
EXTT3=
EXTT4=
EXTT5=
EXTT6=
EXTT7=
EXTT8=
EXTT9=
PLAYORDER=
